HIERARCHY
ROOT Hips
{
	OFFSET 39.591534 25.081974 40.528454
	CHANNELS 6 Xposition Yposition Zposition Zrotation Yrotation Xrotation
	JOINT LHipJoint
	{
		OFFSET 41.285133 48.300682 58.487160
		CHANNELS 3 Zrotation Yrotation Xrotation
		JOINT LeftUpLeg
		{
			OFFSET 69.084137 69.397369 68.976311
			CHANNELS 3 Zrotation Yrotation Xrotation
			JOINT LeftLeg
			{
				OFFSET 70.466385 67.477409 74.638466
				CHANNELS 3 Zrotation Yrotation Xrotation
				JOINT LeftFoot
				{
					OFFSET 82.997711 99.574066 103.115181
					CHANNELS 3 Zrotation Yrotation Xrotation
					JOINT LeftToeBase
					{
						OFFSET 103.427246 102.055145 96.678925
						CHANNELS 3 Zrotation Yrotation Xrotation
						End Site
						{
							OFFSET 0.000000 0.000000 0.000000
						}
					}
				}
			}
		}
	}
	JOINT RHipJoint
	{
		OFFSET 95.577629 92.211319 99.627052
		CHANNELS 3 Zrotation Yrotation Xrotation
		JOINT RightUpLeg
		{
			OFFSET 94.196899 99.956032 97.151489
			CHANNELS 3 Zrotation Yrotation Xrotation
			JOINT RightLeg
			{
				OFFSET 100.360397 92.690544 96.061386
				CHANNELS 3 Zrotation Yrotation Xrotation
				JOINT RightFoot
				{
					OFFSET 89.749733 83.819496 77.300545
					CHANNELS 3 Zrotation Yrotation Xrotation
					JOINT RightToeBase
					{
						OFFSET 79.026047 88.478737 78.513931
						CHANNELS 3 Zrotation Yrotation Xrotation
						End Site
						{
							OFFSET 0.000000 0.000000 0.000000
						}
					}
				}
			}
		}
	}
	JOINT LowerBack
	{
		OFFSET 95.461365 103.951561 124.235313
		CHANNELS 3 Zrotation Yrotation Xrotation
		JOINT Spine
		{
			OFFSET 132.772751 139.660065 147.127945
			CHANNELS 3 Zrotation Yrotation Xrotation
			JOINT Spine1
			{
				OFFSET 148.692566 141.857239 154.470184
				CHANNELS 3 Zrotation Yrotation Xrotation
				JOINT Neck
				{
					OFFSET 159.849106 160.322479 145.126831
					CHANNELS 3 Zrotation Yrotation Xrotation
					JOINT Neck1
					{
						OFFSET 153.138321 165.719666 159.083008
						CHANNELS 3 Zrotation Yrotation Xrotation
						JOINT Head
						{
							OFFSET 143.429932 118.138466 120.736473
							CHANNELS 3 Zrotation Yrotation Xrotation
							End Site
							{
								OFFSET 0.000000 0.000000 0.000000
							}
						}
					}
				}
				JOINT LeftShoulder
				{
					OFFSET 110.313072 100.866310 111.057938
					CHANNELS 3 Zrotation Yrotation Xrotation
					JOINT LeftArm
					{
						OFFSET 123.372620 118.148201 95.530304
						CHANNELS 3 Zrotation Yrotation Xrotation
						JOINT LeftForeArm
						{
							OFFSET 121.167191 138.886246 117.631569
							CHANNELS 3 Zrotation Yrotation Xrotation
							JOINT LeftHand
							{
								OFFSET 136.100647 88.792320 84.720955
								CHANNELS 3 Zrotation Yrotation Xrotation
								JOINT LeftFingerBase
								{
									OFFSET 98.001282 100.812698 110.409180
									CHANNELS 3 Zrotation Yrotation Xrotation
									JOINT LeftHandIndex1
									{
										OFFSET 126.620468 94.602776 60.871269
										CHANNELS 3 Zrotation Yrotation Xrotation
										End Site
										{
											OFFSET 0.000000 0.000000 0.000000
										}
									}
								}
								JOINT LThumb
								{
									OFFSET 80.566925 74.686890 89.179871
									CHANNELS 3 Zrotation Yrotation Xrotation
									End Site
									{
										OFFSET 0.000000 0.000000 0.000000
									}
								}
							}
						}
					}
				}
				JOINT RightShoulder
				{
					OFFSET 96.400154 86.699333 72.346947
					CHANNELS 3 Zrotation Yrotation Xrotation
					JOINT RightArm
					{
						OFFSET 64.937805 79.285843 60.862595
						CHANNELS 3 Zrotation Yrotation Xrotation
						JOINT RightForeArm
						{
							OFFSET 35.190960 33.503517 33.789814
							CHANNELS 3 Zrotation Yrotation Xrotation
							JOINT RightHand
							{
								OFFSET 29.576426 29.599720 34.789848
								CHANNELS 3 Zrotation Yrotation Xrotation
								JOINT RightFingerBase
								{
									OFFSET 35.021786 50.072353 43.445091
									CHANNELS 3 Zrotation Yrotation Xrotation
									JOINT RightHandIndex1
									{
										OFFSET 47.612507 52.859894 54.761589
										CHANNELS 3 Zrotation Yrotation Xrotation
										End Site
										{
											OFFSET 0.000000 0.000000 0.000000
										}
									}
								}
								JOINT RThumb
								{
									OFFSET 56.735897 44.281616 49.939335
									CHANNELS 3 Zrotation Yrotation Xrotation
									End Site
									{
										OFFSET 44.418232 36.029530 44.514984
									}
								}
							}
						}
					}
				}
			}
		}
	}
}
MOTION
Frames: 8
Frame Time: 0.008333
2.088707 9.657069 -109.802902 -43.945683 -103.984016 -119.034065 -80.044891 -50.116524 -92.393669 -262.803619 -284.123413 -424.445801 -132.591843 -168.349838 -536.104858 -132.730621 -588.058533 -722.249573 -69.018883 -248.196228 -755.000671 -304.716034 -125.816444 -187.167480 -553.523804 -519.560852 -774.388489 -182.589783 -237.177246 -706.597534 -190.227829 -565.268982 -799.667725 -70.458069 -265.536652 -867.677124 -192.235809 -171.856369 -258.576416 -100.906075 -239.813736 -235.478638 -191.316330 -120.844376 -345.681946 -327.107635 -206.218231 -324.792114 -104.357857 -232.584808 -259.700745 -129.591797 -101.260742 -174.315796 -145.796051 -108.112900 -55.342766 -369.579224 -337.410889 -1038.755615 -481.391235 -468.813629 -387.298920 -23.134686 -48.238407 -764.192139 -348.264618 -747.318604 -758.533569 -7.125000 0.000000 0.000000 -645.249939 -775.033203 -1323.438843 -159.898209 -31.731184 3.321621 -29.305702 -72.224701 -105.640549 -98.933418 -32.323013 -41.044159 -10.369970 -6.921134 -145.547272 -273.497528 18.912022 -29.574934 7.125000 0.000000 0.000000 -63.233311 -298.602997 -487.850250
19.302759 17.628675 188.249557 5.532578 -27.670355 -22.470488 32.635727 17.316883 1.130349 -12.967205 -24.349873 38.571167 -15.912842 -12.453074 66.639969 1.206015 -1.711496 -64.010826 -1.224851 2.366373 19.392544 -48.910446 -0.306629 -0.036589 58.353500 7.786964 91.412140 26.394459 13.621234 102.351807 7.789787 72.178421 48.682362 20.221197 52.123508 317.485077 79.976097 72.096909 143.496735 72.635162 86.723595 83.415375 88.395927 92.316940 99.827568 47.468857 112.409164 30.656101 30.742783 21.767742 84.176346 51.510677 30.334068 64.474693 84.796295 85.489899 2.076759 6.930664 399.285614 44.468544 348.388031 47.939838 184.120804 10.493341 36.266529 389.371063 139.494690 -222.330444 -494.952515 -7.125000 0.000000 0.000000 218.514496 98.223221 -97.417427 5.415337 101.852226 43.836742 162.729538 57.048290 138.026978 -1.644601 32.595734 22.499241 -2.031424 2.542574 -11.398455 40.817383 167.935516 194.403976 7.125000 0.000000 0.000000 136.544968 -316.426880 -235.334183
17.845783 17.304462 148.981918 24.568996 27.476950 29.715822 82.510605 42.224056 39.463070 92.279243 96.581932 249.000748 31.880865 40.861488 290.762939 37.385899 176.708237 137.454956 21.577774 70.138329 273.223663 20.090269 29.641615 18.927113 109.785889 51.902267 170.531021 38.305180 30.783703 189.435059 19.901535 89.633118 4.582856 15.494847 17.968330 156.642944 39.678001 26.221596 58.265133 31.474173 13.707408 15.402933 42.399151 38.800503 -24.919025 -55.888779 38.490559 -17.553572 22.893215 9.025214 91.895088 62.501549 39.024391 74.807564 76.616592 68.647141 -8.840471 -87.108116 187.309738 -285.540771 207.918762 -52.359306 126.360825 4.248325 18.872480 173.402222 57.766209 -14.708525 -365.127991 -7.125000 0.000000 0.000000 426.062073 208.160156 9.546337 -27.302002 77.220497 35.238846 119.250061 113.008606 210.447525 61.592861 82.751656 49.489857 0.831281 5.456169 47.345734 366.556824 356.632507 480.205627 7.125000 0.000000 0.000000 386.767975 -139.796906 493.794586
35.831467 23.186827 361.374725 82.432175 130.861481 146.895493 189.596542 95.539001 113.377968 269.266418 273.856995 547.667358 102.012146 137.416992 653.660034 99.229752 448.050232 450.539062 56.194305 170.551178 602.341858 132.547699 90.351318 111.498863 436.324615 342.861084 646.564758 156.468231 170.691360 659.929626 132.994080 517.817505 549.058044 78.084183 241.934311 989.260559 220.465775 183.433090 312.097687 134.692978 211.274109 216.476135 231.340805 171.826431 259.630768 189.016129 238.692596 245.365326 128.898743 221.857544 378.923340 194.012283 130.140579 234.996216 224.824829 220.044846 40.859352 256.715271 826.762085 702.596252 976.884888 391.270111 583.050476 33.164234 93.628220 1162.602783 489.989532 442.593353 -161.163925 -7.125000 0.000000 0.000000 820.224609 437.932159 392.387512 42.628567 148.684662 58.871044 239.621796 252.783783 397.423462 121.733902 118.970665 68.072296 3.801119 9.870728 126.213493 563.307312 410.509735 274.583221 7.125000 0.000000 0.000000 281.036194 -203.580475 263.737885
16.077002 16.764179 100.194054 27.721115 -2.909318 7.578094 66.722641 30.576984 20.411539 12.405924 -6.914169 79.616608 -28.852104 -38.077877 72.475822 -14.771488 -23.450645 -134.663895 0.106803 -60.856838 -108.998901 -131.323792 -28.086058 -72.697212 -151.563568 -186.995285 -212.239059 -57.518215 -102.310982 -219.838470 -90.267265 -104.310806 -348.406128 -18.396488 -128.816330 -274.819916 -85.297394 -78.790565 -109.205269 -32.452892 -135.853790 -155.707626 -73.954498 -69.593407 -268.581512 -266.311432 -118.354507 -218.766632 -50.251686 -147.597610 -111.570549 -54.091576 -40.396244 -33.671265 -33.937977 12.701681 -23.108536 -149.881104 67.478622 -503.213135 174.117020 -106.717270 64.399033 -4.266916 5.956640 -69.040894 -121.380676 -229.406296 -564.133911 -7.125000 0.000000 0.000000 91.603333 -187.316162 -416.476196 -53.439152 78.875931 35.571720 61.838833 69.165092 14.572975 -30.132305 20.981684 -35.321857 -8.039286 -2.584942 -43.197044 57.553116 179.626648 55.222656 7.125000 0.000000 0.000000 52.952843 -281.413727 100.202293
3.479670 13.258690 -53.347431 -27.540806 -125.745377 -135.413315 -67.390259 -46.561703 -88.847404 -283.092224 -304.952667 -383.352356 -144.736954 -180.788223 -380.090607 -107.082932 -402.873566 -562.430664 -38.983730 -204.023499 -498.230225 -263.942871 -84.979156 -159.559677 -423.534241 -423.565216 -584.901611 -143.221130 -206.052750 -572.106995 -184.370483 -378.393982 -739.898743 -55.908348 -255.522552 -623.705872 -161.362335 -133.237244 -196.198090 -65.874168 -201.662964 -214.848526 -113.516632 -106.269379 -347.857117 -345.573273 -190.006241 -336.817810 -101.235474 -257.759308 -262.603210 -149.494034 -118.942596 -215.453049 -230.144806 -163.801468 -77.398621 -516.838318 -656.343262 -1720.014160 -703.983765 -579.274170 -354.587280 -23.523804 -34.920128 -724.000427 -500.749756 -890.543762 -1084.729248 -7.125000 0.000000 0.000000 -833.713013 -1018.148315 -1424.133911 -124.603035 40.341602 30.356539 27.687191 27.106972 -129.191818 -121.833191 -44.159409 -113.910530 -17.828606 -14.779884 -225.832092 -621.735718 -175.202118 -735.338806 7.125000 0.000000 0.000000 -724.843628 -659.485657 -761.417236
13.974702 20.747469 264.152466 65.005699 68.575485 101.448402 154.520676 86.333344 102.169792 222.779388 238.532440 544.320251 112.628563 132.472076 685.479431 110.163765 518.274475 459.167725 64.210197 161.563049 692.890259 132.165787 100.046486 116.969910 474.780579 361.147430 698.620972 172.640717 178.066467 697.597351 138.097610 615.966064 606.342957 90.089813 282.154358 1169.507080 233.990738 193.745926 321.089539 153.452988 221.759689 187.034225 216.915741 141.186707 195.431915 130.741501 197.177780 190.352570 107.495300 181.127579 332.826324 167.393372 112.838135 232.974747 209.697327 202.771027 40.403900 242.485123 719.205566 567.161194 948.749268 398.805267 640.508667 30.633360 91.721008 1088.551880 377.527405 633.817505 5.891342 -7.125000 0.000000 0.000000 1259.074707 862.643127 953.480530 112.999222 189.981949 73.112885 304.824432 322.926117 484.228638 182.132202 176.019318 91.745689 8.954990 15.294427 242.365173 815.311768 474.715668 691.357361 7.125000 0.000000 0.000000 310.820038 -132.063187 405.647583
-14.831429 12.616007 -103.255920 -53.047924 -171.962769 -162.172424 -96.413895 -60.331982 -111.153801 -328.631683 -317.202057 -447.841064 -159.535202 -218.771652 -502.555084 -136.447632 -518.707825 -656.202454 -44.569649 -240.153015 -551.011414 -295.871521 -94.190506 -170.899780 -476.708588 -482.208618 -661.382874 -170.441696 -241.249374 -663.100647 -199.937790 -464.742126 -832.063660 -67.060768 -305.100800 -928.114746 -230.037216 -195.251480 -295.261444 -93.235397 -252.885529 -272.160858 -182.542053 -139.977936 -388.667206 -375.354065 -212.082367 -319.700439 -89.160492 -229.449051 -222.259583 -123.791733 -103.278893 -163.189896 -167.139465 -104.691422 -54.319675 -335.860168 -383.256622 -1186.506470 -338.951263 -475.806854 -234.177765 -20.833565 -31.493258 -659.422546 -468.988464 -639.885071 -947.135498 -7.125000 0.000000 0.000000 -620.083496 -892.508057 -1335.553955 -133.959686 33.839455 23.655315 -24.084259 -34.015583 -221.851685 -123.541550 -36.912209 -84.278664 -13.156635 -13.753453 -191.570450 -297.157623 14.486678 -189.751343 7.125000 0.000000 0.000000 -472.488647 -540.687744 -613.593018
